<svg xmlns="http://www.w3.org/2000/svg" viewBox="0 0 504 180"><path fill="#ff8718" d="M120.89 59.75a6.19 6.19 0 0 0 3.56-1.36l22-19.67c.84-.75.6-1.36-.52-1.36H44.13a6.21 6.21 0 0 0-3.56 1.36L18.5 58.39c-.84.75-.6 1.36.52 1.36z"/><path fill="#00a5ff" d="M120.89 100a6.19 6.19 0 0 0 3.56-1.36l22-19.67c.84-.75.6-1.36-.52-1.36H44.13A6.21 6.21 0 0 0 40.57 79L18.5 98.64c-.84.75-.6 1.36.52 1.36z"/><path fill="#ff0312" d="M120.89 140.25a6.19 6.19 0 0 0 3.56-1.36l22-19.67c.84-.75.6-1.36-.52-1.36H44.13a6.21 6.21 0 0 0-3.56 1.36L18.5 138.89c-.84.75-.6 1.36.52 1.36z"/><path fill="#333132" d="M180.43 136.33a5.36 5.36 0 0 1-2.43-4.63 5.62 5.62 0 0 1 1.54-3.93 5.09 5.09 0 0 1 3.93-1.68 6.19 6.19 0 0 1 2.52.56 56.56 56.56 0 0 0 9 3.08 41.61 41.61 0 0 0 10.1 1.12q15.57 0 15.57-10 0-3.23-3.58-4.91a73.2 73.2 0 0 0-11.71-3.79 105.68 105.68 0 0 1-13.67-4.07 24 24 0 0 1-9.26-6.38q-3.86-4.28-3.86-11.29a20.22 20.22 0 0 1 7.08-16q7.08-6.17 20.26-6.17a58.53 58.53 0 0 1 20.33 3.5 5.27 5.27 0 0 1 3 2.1 5.65 5.65 0 0 1 1.05 3.23 5.5 5.5 0 0 1-1.61 3.93 5.31 5.31 0 0 1-4 1.68 7.81 7.81 0 0 1-1.82-.28 53.77 53.77 0 0 0-16-2.52q-7.57 0-11.85 2.73t-4.28 7.08a6.48 6.48 0 0 0 3.93 6.17 55.84 55.84 0 0 0 12.2 3.79 117 117 0 0 1 13.46 4.14 22.29 22.29 0 0 1 8.91 6.38q3.71 4.35 3.72 11.64a18.53 18.53 0 0 1-7.08 14.87q-7.08 5.89-20 5.89a52.16 52.16 0 0 1-25.45-6.24zm70.11 3.78a6.09 6.09 0 0 1-1.82-4.49v-91a6.33 6.33 0 0 1 1.82-4.56 6 6 0 0 1 4.46-1.9 6.46 6.46 0 0 1 6.45 6.45v36.6a46.62 46.62 0 0 1 11.5-9.4 29.06 29.06 0 0 1 14.59-3.5A24.25 24.25 0 0 1 301 72a23.72 23.72 0 0 1 8.69 10 31.8 31.8 0 0 1 3 13.88v39.83a6 6 0 0 1-1.89 4.49 6.34 6.34 0 0 1-4.56 1.82 6.23 6.23 0 0 1-6.31-6.31V97.2q0-17.11-15.43-17.11a22.32 22.32 0 0 0-12.55 3.65 45.41 45.41 0 0 0-10.45 9.82v42.07a6 6 0 0 1-1.89 4.49 6.34 6.34 0 0 1-4.56 1.82 6.1 6.1 0 0 1-4.51-1.83zm87.46-7.22q-9.61-9.75-9.61-27.42A45.67 45.67 0 0 1 332 87.1a31.22 31.22 0 0 1 11.22-13.6q7.57-5.19 18.65-5.19a32.62 32.62 0 0 1 18 4.84 31.29 31.29 0 0 1 11.5 12.9 39.67 39.67 0 0 1 3.93 17.6 6.12 6.12 0 0 1-6.45 6.31h-47.57q1.12 9.82 7.29 15.29t17.25 5.47a42.08 42.08 0 0 0 10.31-1.12 42.81 42.81 0 0 0 8.62-3.23 5.84 5.84 0 0 1 6.45 1 5.09 5.09 0 0 1 1.68 3.93q0 3.09-3.65 5.19a43.78 43.78 0 0 1-24.54 6.17q-17.1-.02-26.69-9.77zm44.67-33.31a22.47 22.47 0 0 0-3.58-11.5 19.32 19.32 0 0 0-7.78-6.8 21.4 21.4 0 0 0-18.79 0 18.84 18.84 0 0 0-7.71 6.8 22.89 22.89 0 0 0-3.51 11.5zm29.85 40.53a6.09 6.09 0 0 1-1.82-4.49v-91a6.33 6.33 0 0 1 1.82-4.56 6 6 0 0 1 4.48-1.9 6.24 6.24 0 0 1 6.45 6.45v91a6 6 0 0 1-1.89 4.49 6.34 6.34 0 0 1-4.56 1.82 6.1 6.1 0 0 1-4.48-1.81zm38.84 0a6.09 6.09 0 0 1-1.82-4.49v-55h-8.27a5.51 5.51 0 0 1-5.47-5.47 5.2 5.2 0 0 1 1.61-3.93 5.38 5.38 0 0 1 3.86-1.54h8.27v-8.1q0-8.41 3-13.81a18.69 18.69 0 0 1 7.85-7.85 22.19 22.19 0 0 1 10.17-2.45 26.89 26.89 0 0 1 12.2 2.8 6.08 6.08 0 0 1 2.31 2 5 5 0 0 1 .91 2.87 5.22 5.22 0 0 1-1.54 3.72 4.88 4.88 0 0 1-3.65 1.61 13.23 13.23 0 0 1-3.23-.42q-3.37-.42-3.79-.42-5.75 0-8.62 2.66T462.3 62v7.71h17.53a5.28 5.28 0 0 1 5.47 5.47 5.38 5.38 0 0 1-1.54 3.82 5.2 5.2 0 0 1-3.93 1.61H462.3v55a6 6 0 0 1-1.89 4.49 6.34 6.34 0 0 1-4.56 1.82 6.1 6.1 0 0 1-4.49-1.81z"/></svg>